<svg xmlns="http://www.w3.org/2000/svg" 
xml:space="preserve" width="655.359" 
height="655.359" 
style="shape-rendering:geometricPrecision;text-rendering:geometricPrecision;image-rendering:optimizeQuality;fill-rule:evenodd;clip-rule:evenodd" 
viewBox="0 0 6.827 6.827"><defs><style>.fil1{fill:#424242}.fil0{fill:#64b5f6}</style></defs><g id="Layer_x0020_1"><path 
class="fil0" d="M2.608 2.081c.001-.643-1.096-1.22-1.096-1.22s1.08-.17 1.45 1.048a.95.95 0 0 0-.11.016l-.023.005-.02.015c-.063.05-.132.094-.201.136zM4.219 2.081C4.218 1.438 5.314.861 5.314.861s-1.08-.17-1.45 1.048a.95.95 0 0 1 .11.016l.024.005.02.015c.062.05.131.094.2.136z"/><path class="fil1" d="M3.413 5.967a.178.178 0 0 1-.016.006c-.141-.043-.33-.32-.33-.32v-.395h.693v.396s-.19.276-.33.32a.178.178 0 0 1-.017-.007z"/><path class="fil1" d="M5.294 2.702c-.272-.107-1.005-.408-1.343-.673a3.023 3.023 0 0 0-.481-.03v2.504c.138.019.244.11.244.218 0 .123-.133.222-.297.222H3.41c-.163 0-.296-.1-.296-.222 0-.109.105-.2.244-.218V2c-.2 0-.395.01-.482.03-.337.265-1.07.566-1.343.673l.85.142a.056.056 0 0 1 .047.053l.034.449.227 1.07c-.02 1.042.707 1.008.707 1.008h.033s.727.034.707-1.008l.226-1.07.035-.45a.056.056 0 0 1 .047-.053l.85-.141zm-2.944.644a1.073 1.073 0 0 1-.889-.542l.859.143.03.4zm.287-.385s.417-.054.414.24c0 0-.4.273-.414-.24zm1.84.385c.203-.011.63-.092.888-.542l-.858.143-.03.4zm-.287-.385s-.418-.054-.414.24c0 0 .4.273.414-.24z"/></g><path 
style="fill:none" d="M0 0h6.827v6.827H0z"/></svg>